<svg xmlns="http://www.w3.org/2000/svg" width="72.041" height="47.816" viewBox="0 0 72.041 47.816" style="fill:white">
  <g id="Group_41" data-name="Group 41" transform="translate(0.25 0.25)" >
    <path id="Path_37" data-name="Path 37" d="M170.97-428.019H140.454c-3,0-5.306-2.815-5.308-6.5q-.006-17.076,0-34.153c0-3.758,2.285-6.591,5.324-6.591,20.185,0,40.369.026,60.554-.034a5.742,5.742,0,0,1,5.4,4.506,7.234,7.234,0,0,1,.226,1.931c0,11.352-.057,22.7.034,34.055.03,3.737-2.541,6.854-5.515,6.824C191.1-428.083,181.036-428.019,170.97-428.019ZM170.889-472V-472q-15.021,0-30.042,0a4.871,4.871,0,0,0-1.421.189,2.15,2.15,0,0,0-1.485,1.838,9.09,9.09,0,0,0-.151,1.751q0,16.392,0,32.784c0,3.349.657,4.159,3.388,4.159h37.771q11.036,0,22.072,0c2.194,0,2.975-.971,2.983-3.675,0-.131,0-.262,0-.393q0-16.147,0-32.293c0-3.619-.585-4.36-3.55-4.36Q185.67-472,170.889-472Z" transform="translate(-135.142 475.296)" stroke="#fff" stroke-width="0.5" style="fill:white"/>
    <path id="Path_38" data-name="Path 38" d="M202.72-382.592a10.828,10.828,0,0,1,1.175.006,1.573,1.573,0,0,1,1.434,1.683,1.526,1.526,0,0,1-1.47,1.538,19.668,19.668,0,0,1-2.057.012c-.63-.024-.66.209-.372.678.308.5.61,1.007.871,1.533a1.643,1.643,0,0,1-.605,2.291,1.658,1.658,0,0,1-2.283-.654c-.3-.465-.56-.958-.844-1.436-.239-.4-.471-.4-.7.016-.271.485-.535.975-.837,1.44a1.686,1.686,0,0,1-2.3.635,1.639,1.639,0,0,1-.61-2.286,13.168,13.168,0,0,1,.827-1.445c.475-.711.124-.805-.511-.771-.489.027-.98.014-1.47.007-1.189-.017-1.875-.63-1.868-1.658.007-.992.663-1.574,1.817-1.6.555-.011,1.112-.029,1.666,0,.7.041.7-.228.391-.725-.294-.47-.576-.951-.826-1.446a1.651,1.651,0,0,1,.541-2.312,1.722,1.722,0,0,1,2.365.665c.4.569.513,1.633,1.209,1.611.538-.017.735-1.054,1.106-1.623a1.714,1.714,0,0,1,2.372-.655,1.664,1.664,0,0,1,.551,2.308c-.116.234-.28.444-.388.681-.21.463-.816.926-.568,1.361C201.537-382.369,202.241-382.663,202.72-382.592Z" transform="translate(-180.088 404.629)"/>
    <path id="Path_39" data-name="Path 39" d="M376.721-382.6c.983,0,1.763-.017,2.541,0a1.575,1.575,0,0,1,1.7,1.616,1.59,1.59,0,0,1-1.7,1.627c-.359.016-.719.005-1.079.006-1.465,0-1.489.048-.738,1.358.163.284.342.559.486.851a1.64,1.64,0,0,1-.6,2.288,1.648,1.648,0,0,1-2.284-.657c-.306-.463-.582-.947-.856-1.43-.236-.418-.465-.419-.7-.013s-.446.8-.67,1.2a1.749,1.749,0,0,1-2.445.909c-.907-.491-1.089-1.431-.485-2.54.234-.431.465-.865.73-1.276.381-.591.137-.716-.446-.692a18.436,18.436,0,0,1-1.863-.006A1.572,1.572,0,0,1,366.728-381a1.585,1.585,0,0,1,1.629-1.6,11.927,11.927,0,0,1,1.666,0c.938.086.905-.27.487-.906a11.127,11.127,0,0,1-.77-1.366,1.625,1.625,0,0,1,.676-2.265,1.737,1.737,0,0,1,2.289.712c.384.58.488,1.64,1.188,1.628.577-.01.735-1.054,1.117-1.615a1.711,1.711,0,0,1,2.363-.679,1.661,1.661,0,0,1,.539,2.314C377.581-384.1,377.2-383.457,376.721-382.6Z" transform="translate(-321.17 404.628)"/>
    <path id="Path_41" data-name="Path 41" d="M290.558-379.359c-1.667.008-1.666.007-.822,1.5a7.951,7.951,0,0,1,.5.954,1.589,1.589,0,0,1-.673,2.035,1.622,1.622,0,0,1-2.121-.386,13.082,13.082,0,0,1-.96-1.592c-.32-.575-.592-.5-.88.022-.251.459-.495.924-.785,1.358a1.681,1.681,0,0,1-2.307.591,1.662,1.662,0,0,1-.567-2.232c.055-.119.121-.232.184-.347,1.04-1.884,1.04-1.883-1.065-1.9a5.38,5.38,0,0,1-.783-.029,1.542,1.542,0,0,1-1.343-1.659,1.479,1.479,0,0,1,1.37-1.531,8.512,8.512,0,0,1,1.86-.03c.973.086.956-.271.517-.942a10.989,10.989,0,0,1-.763-1.37,1.6,1.6,0,0,1,.637-2.2,1.654,1.654,0,0,1,2.232.582c.314.457.57.953.841,1.438s.531.541.822.018c.271-.485.529-.98.839-1.439a1.669,1.669,0,0,1,2.313-.553,1.619,1.619,0,0,1,.525,2.232c-.265.525-.547,1.044-.86,1.541-.375.6-.134.716.45.689s1.178-.019,1.765.006a1.571,1.571,0,0,1,1.678,1.641,1.581,1.581,0,0,1-1.628,1.6C291.213-379.342,290.885-379.359,290.558-379.359Z" transform="translate(-250.648 404.638)"/>
  </g>
</svg>
